<?xml version="1.0" encoding="UTF-8"?>
<!DOCTYPE svg PUBLIC "-//W3C//DTD SVG 1.1//EN" "http://www.w3.org/Graphics/SVG/1.1/DTD/svg11.dtd">
<svg version="1.2" width="0.79mm" height="1.06mm" viewBox="0 61 79 106" preserveAspectRatio="xMidYMid" fill-rule="evenodd" stroke-width="28.222" stroke-linejoin="round" xmlns="http://www.w3.org/2000/svg" xmlns:ooo="http://xml.openoffice.org/svg/export" xmlns:xlink="http://www.w3.org/1999/xlink" xmlns:presentation="http://sun.com/xmlns/staroffice/presentation" xmlns:smil="http://www.w3.org/2001/SMIL20/" xmlns:anim="urn:oasis:names:tc:opendocument:xmlns:animation:1.0" xml:space="preserve">
 <defs class="EmbeddedBulletChars">
  <g id="bullet-char-template-57356" transform="scale(0.00048828125,-0.00048828125)">
   <path d="M 580,1141 L 1163,571 580,0 -4,571 580,1141 Z"/>
  </g>
  <g id="bullet-char-template-57354" transform="scale(0.00048828125,-0.00048828125)">
   <path d="M 8,1128 L 1137,1128 1137,0 8,0 8,1128 Z"/>
  </g>
  <g id="bullet-char-template-10146" transform="scale(0.00048828125,-0.00048828125)">
   <path d="M 174,0 L 602,739 174,1481 1456,739 174,0 Z M 1358,739 L 309,1346 659,739 1358,739 Z"/>
  </g>
  <g id="bullet-char-template-10132" transform="scale(0.00048828125,-0.00048828125)">
   <path d="M 2015,739 L 1276,0 717,0 1260,543 174,543 174,936 1260,936 717,1481 1274,1481 2015,739 Z"/>
  </g>
  <g id="bullet-char-template-10007" transform="scale(0.00048828125,-0.00048828125)">
   <path d="M 0,-2 C -7,14 -16,27 -25,37 L 356,567 C 262,823 215,952 215,954 215,979 228,992 255,992 264,992 276,990 289,987 310,991 331,999 354,1012 L 381,999 492,748 772,1049 836,1024 860,1049 C 881,1039 901,1025 922,1006 886,937 835,863 770,784 769,783 710,716 594,584 L 774,223 C 774,196 753,168 711,139 L 727,119 C 717,90 699,76 672,76 641,76 570,178 457,381 L 164,-76 C 142,-110 111,-127 72,-127 30,-127 9,-110 8,-76 1,-67 -2,-52 -2,-32 -2,-23 -1,-13 0,-2 Z"/>
  </g>
  <g id="bullet-char-template-10004" transform="scale(0.00048828125,-0.00048828125)">
   <path d="M 285,-33 C 182,-33 111,30 74,156 52,228 41,333 41,471 41,549 55,616 82,672 116,743 169,778 240,778 293,778 328,747 346,684 L 369,508 C 377,444 397,411 428,410 L 1163,1116 C 1174,1127 1196,1133 1229,1133 1271,1133 1292,1118 1292,1087 L 1292,965 C 1292,929 1282,901 1262,881 L 442,47 C 390,-6 338,-33 285,-33 Z"/>
  </g>
  <g id="bullet-char-template-9679" transform="scale(0.00048828125,-0.00048828125)">
   <path d="M 813,0 C 632,0 489,54 383,161 276,268 223,411 223,592 223,773 276,916 383,1023 489,1130 632,1184 813,1184 992,1184 1136,1130 1245,1023 1353,916 1407,772 1407,592 1407,412 1353,268 1245,161 1136,54 992,0 813,0 Z"/>
  </g>
  <g id="bullet-char-template-8226" transform="scale(0.00048828125,-0.00048828125)">
   <path d="M 346,457 C 273,457 209,483 155,535 101,586 74,649 74,723 74,796 101,859 155,911 209,963 273,989 346,989 419,989 480,963 531,910 582,859 608,796 608,723 608,648 583,586 532,535 482,483 420,457 346,457 Z"/>
  </g>
  <g id="bullet-char-template-8211" transform="scale(0.00048828125,-0.00048828125)">
   <path d="M -4,459 L 1135,459 1135,606 -4,606 -4,459 Z"/>
  </g>
  <g id="bullet-char-template-61548" transform="scale(0.00048828125,-0.00048828125)">
   <path d="M 173,740 C 173,903 231,1043 346,1159 462,1274 601,1332 765,1332 928,1332 1067,1274 1183,1159 1299,1043 1357,903 1357,740 1357,577 1299,437 1183,322 1067,206 928,148 765,148 601,148 462,206 346,322 231,437 173,577 173,740 Z"/>
  </g>
 </defs>
 <g class="Page">
  <g class="Graphic">
   <g id="id3">
    <rect class="BoundingBox" stroke="none" fill="none" x="0" y="61" width="79" height="106"/>
    <defs>
     <clipPath id="clip_path_1" clipPathUnits="userSpaceOnUse">
      <path d="M 0,61 L 78,61 78,166 0,166 0,61 Z"/>
     </clipPath>
    </defs>
    <g clip-path="url(#clip_path_1)"/>
    <defs>
     <clipPath id="clip_path_2" clipPathUnits="userSpaceOnUse">
      <path d="M 26,61 L 51,61 51,166 26,166 26,61 Z"/>
     </clipPath>
    </defs>
    <g clip-path="url(#clip_path_2)">
     <path fill="rgb(81,90,99)" stroke="none" d="M 26,4605 L 26,4332 51,4332 51,4605 26,4605 26,4605 Z"/>
     <path fill="rgb(81,90,99)" stroke="none" d="M 26,4605 L 26,4093 51,4093 51,4605 26,4605 26,4605 Z"/>
     <path fill="rgb(80,89,98)" stroke="none" d="M 26,4367 L 26,3855 51,3855 51,4367 26,4367 26,4367 Z"/>
     <path fill="rgb(80,89,98)" stroke="none" d="M 26,4128 L 26,3616 51,3616 51,4128 26,4128 26,4128 Z"/>
     <path fill="rgb(79,88,97)" stroke="none" d="M 26,3890 L 26,3378 51,3378 51,3890 26,3890 26,3890 Z"/>
     <path fill="rgb(79,88,96)" stroke="none" d="M 26,3657 L 26,3139 51,3139 51,3657 26,3657 26,3657 Z"/>
     <path fill="rgb(78,87,96)" stroke="none" d="M 26,3418 L 26,2901 51,2901 51,3418 26,3418 26,3418 Z"/>
     <path fill="rgb(78,87,95)" stroke="none" d="M 26,3180 L 26,2662 51,2662 51,3180 26,3180 26,3180 Z"/>
     <path fill="rgb(77,86,95)" stroke="none" d="M 26,2941 L 26,2424 51,2424 51,2941 26,2941 26,2941 Z"/>
     <path fill="rgb(77,85,94)" stroke="none" d="M 26,2703 L 26,2185 51,2185 51,2703 26,2703 26,2703 Z"/>
     <path fill="rgb(76,85,93)" stroke="none" d="M 26,2464 L 26,1946 51,1946 51,2464 26,2464 26,2464 Z"/>
     <path fill="rgb(76,84,93)" stroke="none" d="M 26,2226 L 26,1714 51,1714 51,2226 26,2226 26,2226 Z"/>
     <path fill="rgb(75,84,92)" stroke="none" d="M 26,1987 L 26,1475 51,1475 51,1987 26,1987 26,1987 Z"/>
     <path fill="rgb(75,83,91)" stroke="none" d="M 26,1749 L 26,1237 51,1237 51,1749 26,1749 26,1749 Z"/>
     <path fill="rgb(74,82,91)" stroke="none" d="M 26,1510 L 26,998 51,998 51,1510 26,1510 26,1510 Z"/>
     <path fill="rgb(74,82,90)" stroke="none" d="M 26,1272 L 26,760 51,760 51,1272 26,1272 26,1272 Z"/>
     <path fill="rgb(73,81,90)" stroke="none" d="M 26,1033 L 26,521 51,521 51,1033 26,1033 26,1033 Z"/>
     <path fill="rgb(73,81,89)" stroke="none" d="M 26,795 L 26,283 51,283 51,795 26,795 26,795 Z"/>
     <path fill="rgb(72,80,88)" stroke="none" d="M 26,556 L 26,44 51,44 51,556 26,556 26,556 Z"/>
     <path fill="rgb(72,80,88)" stroke="none" d="M 26,318 L 26,-194 51,-194 51,318 26,318 26,318 Z"/>
     <path fill="rgb(71,79,87)" stroke="none" d="M 26,85 L 26,-224 51,-224 51,85 26,85 26,85 Z"/>
    </g>
    <g clip-path="url(#clip_path_1)">
     <path fill="rgb(26,188,156)" stroke="none" d="M 51,-84 L 51,219 26,219 26,-84 51,-84 51,-84 Z"/>
    </g>
   </g>
  </g>
 </g>
</svg>